<svg width="48" height="48" viewBox="0 0 48 48" fill="none" xmlns="http://www.w3.org/2000/svg">
  <defs>
    <linearGradient id="grad1" x1="0%" y1="0%" x2="100%" y2="100%">
      <stop offset="0%" style="stop-color:#1d9bf0;stop-opacity:1" />
      <stop offset="100%" style="stop-color:#7856ff;stop-opacity:1" />
    </linearGradient>
  </defs>
  <rect width="48" height="48" rx="8" fill="url(#grad1)"/>
  
  <!-- Main user icon -->
  <circle cx="15" cy="18" r="6" fill="white" opacity="0.95"/>
  <path d="M3 39c0-6.6 5.4-12 12-12s12 5.4 12 12" stroke="white" stroke-width="2.5" fill="none" opacity="0.95"/>
  
  <!-- Shared user icon -->
  <circle cx="33" cy="18" r="6" fill="white" opacity="0.95"/>
  <path d="M21 39c0-6.6 5.4-12 12-12s12 5.4 12 12" stroke="white" stroke-width="2.5" fill="none" opacity="0.95"/>
  
  <!-- Connection/sharing indicator -->
  <path d="M21 18 L27 18" stroke="white" stroke-width="2.5" opacity="0.8"/>
  <circle cx="24" cy="18" r="1.5" fill="white" opacity="0.8"/>
  
  <!-- Small feed/timeline icons -->
  <rect x="10" y="8" width="8" height="1.5" rx="0.75" fill="white" opacity="0.6"/>
  <rect x="30" y="8" width="8" height="1.5" rx="0.75" fill="white" opacity="0.6"/>
  <rect x="10" y="11" width="6" height="1.5" rx="0.75" fill="white" opacity="0.6"/>
  <rect x="30" y="11" width="6" height="1.5" rx="0.75" fill="white" opacity="0.6"/>
</svg>
