<svg width="128" height="128" viewBox="0 0 128 128" fill="none" xmlns="http://www.w3.org/2000/svg">
  <defs>
    <linearGradient id="grad1" x1="0%" y1="0%" x2="100%" y2="100%">
      <stop offset="0%" style="stop-color:#1d9bf0;stop-opacity:1" />
      <stop offset="100%" style="stop-color:#7856ff;stop-opacity:1" />
    </linearGradient>
    <filter id="shadow" x="-20%" y="-20%" width="140%" height="140%">
      <feDropShadow dx="0" dy="4" stdDeviation="4" flood-opacity="0.2"/>
    </filter>
  </defs>
  
  <!-- Background with rounded corners -->
  <rect width="128" height="128" rx="20" fill="url(#grad1)" filter="url(#shadow)"/>
  
  <!-- Main user profile -->
  <circle cx="40" cy="48" r="16" fill="white" opacity="0.95"/>
  <path d="M8 104c0-17.6 14.4-32 32-32s32 14.4 32 32" stroke="white" stroke-width="6" fill="none" opacity="0.95"/>
  
  <!-- Shared user profile -->
  <circle cx="88" cy="48" r="16" fill="white" opacity="0.95"/>
  <path d="M56 104c0-17.6 14.4-32 32-32s32 14.4 32 32" stroke="white" stroke-width="6" fill="none" opacity="0.95"/>
  
  <!-- Connection line with arrow -->
  <path d="M56 48 L72 48" stroke="white" stroke-width="4" opacity="0.8"/>
  <path d="M68 44 L72 48 L68 52" stroke="white" stroke-width="3" fill="none" opacity="0.8"/>
  <circle cx="64" cy="48" r="3" fill="white" opacity="0.8"/>
  
  <!-- Feed timeline representations -->
  <!-- Left feed -->
  <rect x="24" y="20" width="24" height="3" rx="1.5" fill="white" opacity="0.7"/>
  <rect x="24" y="26" width="20" height="3" rx="1.5" fill="white" opacity="0.7"/>
  <rect x="24" y="32" width="22" height="3" rx="1.5" fill="white" opacity="0.7"/>
  
  <!-- Right feed -->
  <rect x="80" y="20" width="24" height="3" rx="1.5" fill="white" opacity="0.7"/>
  <rect x="80" y="26" width="20" height="3" rx="1.5" fill="white" opacity="0.7"/>
  <rect x="80" y="32" width="22" height="3" rx="1.5" fill="white" opacity="0.7"/>
  
  <!-- Privacy/security indicator -->
  <circle cx="64" cy="28" r="8" fill="rgba(255,255,255,0.1)" stroke="white" stroke-width="2" opacity="0.6"/>
  <path d="M64 22 L64 34 M58 28 L70 28" stroke="white" stroke-width="1.5" opacity="0.6"/>
  
  <!-- Small sharing icons -->
  <circle cx="46" cy="38" r="2" fill="white" opacity="0.5"/>
  <circle cx="82" cy="38" r="2" fill="white" opacity="0.5"/>
</svg>
